<svg id="Layer_1" data-name="Layer 1" xmlns="http://www.w3.org/2000/svg" viewBox="0 0 49.95 24.01"><title>nav-button</title><g id="miu"><g id="editor_list_view_hambuger_menu_glyph" data-name="editor list view hambuger menu glyph"><path id="path-1" d="M1.14,0A1.06,1.06,0,0,0,0,1V3A1.07,1.07,0,0,0,1.14,4H48.81a1.06,1.06,0,0,0,1.14-1V1a1.07,1.07,0,0,0-1.14-1H1.14Zm0,10A1.06,1.06,0,0,0,0,11v2a1.07,1.07,0,0,0,1.14,1H48.81a1.06,1.06,0,0,0,1.14-1V11a1.07,1.07,0,0,0-1.14-1H1.14Zm0,10A1.06,1.06,0,0,0,0,21v2a1.07,1.07,0,0,0,1.14,1H48.81a1.06,1.06,0,0,0,1.14-1V21a1.07,1.07,0,0,0-1.14-1H1.14Z" style="fill:#fff"/><path id="path-1-2" data-name="path-1" d="M1.14,0A1.06,1.06,0,0,0,0,1V3A1.07,1.07,0,0,0,1.14,4H48.81a1.06,1.06,0,0,0,1.14-1V1a1.07,1.07,0,0,0-1.14-1H1.14Zm0,10A1.06,1.06,0,0,0,0,11v2a1.07,1.07,0,0,0,1.14,1H48.81a1.06,1.06,0,0,0,1.14-1V11a1.07,1.07,0,0,0-1.14-1H1.14Zm0,10A1.06,1.06,0,0,0,0,21v2a1.07,1.07,0,0,0,1.14,1H48.81a1.06,1.06,0,0,0,1.14-1V21a1.07,1.07,0,0,0-1.14-1H1.14Z" style="fill:#fff"/></g></g></svg>