<svg id="Layer_1" data-name="Layer 1" xmlns="http://www.w3.org/2000/svg" viewBox="0 0 28 35.08"><title>html-academy-hover</title><path d="M14.14,0.5H14L0.5,1.91V26.5l13.5,8,13.5-8V1.91Zm11.59,25L14,32.5l-11.73-7V15.43L14,22.35V23.6L6,18.86v1.22l8,4.81v1.29L6,21.42v1.22l8,4.81,8.12-4.83V21.4h0v-4l3.62-2.15V25.5h0Zm0-11.56-3.21,1.88L21,16.69,14,12.5v1.22l6,3.57h0l-0.13.08-0.86.5-5-3v1.22l3.94,2.33L17,19h0L14,17.3v1.22l2,1.14-2,1.19L2.34,14,14,7h0Zm0-1.22L13.93,5.8h0L2.26,12.71V3.5L14,2.27,25.73,3.5v9.22Z" style="fill:#243344;stroke:#243344;stroke-miterlimit:10"/></svg>