<svg id="Layer_1" data-name="Layer 1" xmlns="http://www.w3.org/2000/svg" viewBox="0 0 28 35.08"><title>html-academy</title><path d="M640.14,383H640l-13.5,1.41V409l13.5,8,13.5-8V384.41Zm11.59,25L640,415,628.27,408V397.93l11.68,6.92,0,1.25-8-4.74v1.22l8,4.81,0,1.29-8-4.76v1.22l8,4.81,8.12-4.83v-1.22h0v-4l3.62-2.15V408Zm0-11.56-3.21,1.88-1.48.87L640,395v1.22l6,3.57-0.05,0-0.13.08-0.86.5-5-3v1.22l3.94,2.33-0.93.62h0l-3-1.74v1.22l2,1.14-2,1.19-11.63-6.87,11.64-7h0Zm0-1.22-11.8-6.92h0l-11.67,6.91V386L640,384.77,651.73,386v9.24Z" transform="translate(-626 -382.5)" style="fill:#d32356;stroke:#d32356;stroke-miterlimit:10"/></svg>