<svg id="Layer_1" data-name="Layer 1" xmlns="http://www.w3.org/2000/svg" viewBox="0 0 12.54 11.99"><title>like</title><path d="M6.24,12a0.74,0.74,0,0,1-.55-0.25C1.89,7.42,1,6.44.83,6.17h0A3.86,3.86,0,0,1,0,3.8,3.82,3.82,0,0,1,6.28.9,3.85,3.85,0,0,1,8.75,0a3.8,3.8,0,0,1,3.8,3.8,3.49,3.49,0,0,1-.9,2.38L6.79,11.74a0.73,0.73,0,0,1-.55.25h0ZM2,5.28C2.2,5.54,4.46,8.12,6.23,10.14L10.56,5.2a2,2,0,0,0,.52-1.4A2.33,2.33,0,0,0,8.75,1.47a2.44,2.44,0,0,0-1.9.94,0.76,0.76,0,0,1-.58.28,0.73,0.73,0,0,1-.58-0.29A2.35,2.35,0,0,0,1.47,3.8,2.36,2.36,0,0,0,2,5.27v0Z" style="fill:#d84e73"/></svg>