<svg id="Layer_1" data-name="Layer 1" xmlns="http://www.w3.org/2000/svg" viewBox="0 0 74.4 22.86"><title>logo-header-mobile</title><path d="M71.87,18.66a1.29,1.29,0,0,1,1.26-1.29h7.18c5.09,0,8.44,2.7,8.44,7.15v0.06c0,4.86-4.06,7.37-8.85,7.37H74.42v6.83a1.27,1.27,0,1,1-2.54,0V18.66h0Zm8.11,11c3.73,0,6.18-2,6.18-5v0c0-3.22-2.41-4.89-6.05-4.89h-5.7v9.92H80Z" transform="translate(-71.87 -17.21)" style="fill:#fff"/><path d="M93.6,18.5a1.27,1.27,0,1,1,2.54,0V38.78a1.27,1.27,0,1,1-2.54,0V18.5Z" transform="translate(-71.87 -17.21)" style="fill:#fff"/><path d="M102.74,18.53A1.28,1.28,0,0,1,104,17.28h0.35a1.56,1.56,0,0,1,1.29.74l13.68,17.45v-17a1.24,1.24,0,0,1,2.48,0V38.82A1.14,1.14,0,0,1,120.7,40h-0.18a1.73,1.73,0,0,1-1.32-.77l-14-17.87V38.82a1.24,1.24,0,0,1-2.48,0V18.53h0Z" transform="translate(-71.87 -17.21)" style="fill:#fff"/><path d="M128.17,18.5a1.27,1.27,0,1,1,2.54,0h0V30.83l12.85-13.17a1.45,1.45,0,0,1,1-.45,1.27,1.27,0,0,1,1.22,1.26,1.25,1.25,0,0,1-.42.9l-8,7.92,8.56,10.56a1.41,1.41,0,0,1,.35.94A1.31,1.31,0,0,1,145,40.07a1.22,1.22,0,0,1-1-.58L135.58,29l-4.86,4.86v4.89a1.27,1.27,0,1,1-2.54,0h0V18.5h0Z" transform="translate(-71.87 -17.21)" style="fill:#fff"/><path d="M60.5,28.27" transform="translate(-71.87 -17.21)" style="fill:#fff"/></svg>