<svg id="Layer_2" data-name="Layer 2" xmlns="http://www.w3.org/2000/svg" viewBox="0 0 146.3 40.37"><title>logo-footer</title><path d="M71.87,18.66a1.29,1.29,0,0,1,1.26-1.29h7.18c5.09,0,8.44,2.7,8.44,7.15v0.06c0,4.86-4.06,7.37-8.85,7.37H74.42v6.82a1.27,1.27,0,1,1-2.55,0V18.66h0Zm8.11,11c3.73,0,6.18-2,6.18-5V24.62c0-3.22-2.41-4.89-6.05-4.89h-5.7v9.92H80Z" transform="translate(0)" style="fill:#283645"/><path d="M93.6,18.5a1.27,1.27,0,1,1,2.54,0V38.78a1.27,1.27,0,1,1-2.54,0V18.5Z" transform="translate(0)" style="fill:#283645"/><path d="M102.74,18.53A1.28,1.28,0,0,1,104,17.28h0.35a1.56,1.56,0,0,1,1.29.74l13.68,17.45v-17a1.24,1.24,0,1,1,2.48,0V38.82A1.14,1.14,0,0,1,120.65,40h-0.13a1.73,1.73,0,0,1-1.32-.77l-14-17.87V38.82a1.24,1.24,0,1,1-2.48,0V18.53h0Z" transform="translate(0)" style="fill:#283645"/><path d="M128.17,18.5a1.27,1.27,0,1,1,2.54,0V30.83l12.85-13.17a1.45,1.45,0,0,1,1-.45,1.27,1.27,0,0,1,1.22,1.26,1.25,1.25,0,0,1-.42.9l-8,7.92,8.56,10.56a1.41,1.41,0,0,1,.35.94A1.31,1.31,0,0,1,145,40.07a1.22,1.22,0,0,1-1-.58L135.59,29l-4.86,4.86v4.9a1.27,1.27,0,1,1-2.54,0V18.5h0Z" transform="translate(0)" style="fill:#283645"/><path d="M98.5,9.87a3.62,3.62,0,0,1-3.62-3.62,3.62,3.62,0,0,1-3.62,3.62,3.62,3.62,0,0,1,3.62,3.62A3.62,3.62,0,0,1,98.5,9.87Z" transform="translate(0)" style="fill:#d22856"/><path d="M43.09,19.31c0.25,0,.49,0,0.73,0a2.49,2.49,0,0,0-2.14-1.22,2,2,0,0,1-1.88-1.35,12,12,0,0,0-2.09.82,0.7,0.7,0,0,0,.19,0,1.95,1.95,0,0,1,2,2.28A9,9,0,0,1,43.09,19.31Z" transform="translate(0)" style="fill:#d22856"/><path d="M60.46,28L55.29,6.65C54.93,4.3,52.69,0,46.69,0a1.5,1.5,0,1,0,0,3c4.86,0,5.58,3.73,5.64,4.14l4.77,19.7H55a12,12,0,0,0-5.31-8.52,2.5,2.5,0,0,0-1.53,2.3,2,2,0,0,1,0,.26A9,9,0,1,1,35,24.36a2,2,0,0,1-1.85-2A0.74,0.74,0,0,0,33,21.89a12,12,0,0,0-1.79,5H29.35a12,12,0,0,0-23.85,0H3.42L8.19,7.14C8.25,6.73,9,3,13.83,3a1.5,1.5,0,1,0,0-3c-6,0-8.24,4.3-8.6,6.65L0.05,28a1.42,1.42,0,0,0,1.43,1.83h4a11.93,11.93,0,0,0,.39,1.83A0.73,0.73,0,0,0,6,31.32a2,2,0,0,1,2-2,2,2,0,0,1,.48.06,8.33,8.33,0,0,1-.07-1,9,9,0,1,1,9,9A9,9,0,0,1,12,35.58a2,2,0,0,1-1.3.49,0.75,0.75,0,0,0-.75.75,2,2,0,0,1-.18.81,12,12,0,0,0,19.54-7.79h1.81a12,12,0,0,0,23.85,0h4A1.42,1.42,0,0,0,60.46,28Z" transform="translate(0)" style="fill:#d22856"/><path d="M50.69,16.12a4.5,4.5,0,0,1-4.5-4.5,4.5,4.5,0,0,1-4.5,4.5,4.5,4.5,0,0,1,4.5,4.5A4.5,4.5,0,0,1,50.69,16.12Z" transform="translate(0)" style="fill:#283645"/><path d="M37.9,19.63a2.75,2.75,0,0,1-2.75-2.75,2.75,2.75,0,0,1-2.75,2.75,2.75,2.75,0,0,1,2.75,2.75A2.75,2.75,0,0,1,37.9,19.63Z" transform="translate(0)" style="fill:#283645"/><path d="M10.73,34.07A2.75,2.75,0,0,1,8,31.32a2.75,2.75,0,0,1-2.75,2.75A2.75,2.75,0,0,1,8,36.82,2.75,2.75,0,0,1,10.73,34.07Z" transform="translate(0)" style="fill:#283645"/></svg>