<svg id="Layer_1" data-name="Layer 1" xmlns="http://www.w3.org/2000/svg" viewBox="0 0 23.87 23.87"><title>main-nav__close</title><path d="M15.09,11.93l8.56-8.56a0.75,0.75,0,0,0,0-1.06L21.55,0.22a0.75,0.75,0,0,0-1.06,0L11.93,8.78,3.37,0.22a0.77,0.77,0,0,0-1.06,0L0.22,2.31a0.75,0.75,0,0,0,0,1.06l8.56,8.56L0.22,20.49a0.75,0.75,0,0,0,0,1.06l2.09,2.09a0.75,0.75,0,0,0,1.06,0l8.56-8.56,8.56,8.56a0.75,0.75,0,0,0,1.06,0l2.09-2.09a0.75,0.75,0,0,0,0-1.06Z" transform="translate(0)" style="fill:#fff"/></svg>