<svg id="Layer_1" data-name="Layer 1" xmlns="http://www.w3.org/2000/svg" viewBox="0 0 19.7 19.7"><title>tel</title><path d="M9.85,0c-3.51,0-7,.63-8.3,1.88A6.89,6.89,0,0,0,0,5.91S0,6,0,6.08a0.82,0.82,0,0,0,.82.82L4,6.64l0.09,0a0.82,0.82,0,0,0,.8-0.82V4.19a0.9,0.9,0,0,1,.91-0.9h8a0.9,0.9,0,0,1,.91.9V5.8a0.82,0.82,0,0,0,.8.82l0.09,0L18.88,6.9a0.82,0.82,0,0,0,.82-0.82,1.63,1.63,0,0,0,0-.17,6.9,6.9,0,0,0-1.53-4C16.87,0.63,13.36,0,9.85,0Zm0,10.67a1.64,1.64,0,1,0,1.64,1.64A1.64,1.64,0,0,0,9.85,10.67ZM8.62,7V6a1,1,0,1,0-2,0V7L1,12.89a2.06,2.06,0,0,0-.62,1.47V16a1.64,1.64,0,0,0,1.64,1.64H2.46v1a1,1,0,1,0,2.05,0v-1H15.18v1a1,1,0,0,0,2.05,0v-1h0.41A1.64,1.64,0,0,0,19.28,16V14.36a2.05,2.05,0,0,0-.62-1.47L13.13,7V6a1,1,0,1,0-2.05,0V7H8.62ZM9.85,9a3.28,3.28,0,1,1-3.28,3.28A3.28,3.28,0,0,1,9.85,9Z" transform="translate(0)" style="fill:#d32356"/></svg>